<?xml version="1.0" encoding="utf-8"?>
<svg version="1.1" xmlns:xlink="http://www.w3.org/1999/xlink" width="21px" height="26px" xmlns="http://www.w3.org/2000/svg">
  <g transform="matrix(1 0 0 1 -1224 -90 )">
    <path d="M 12.4347826086956 12.4008016032064  C 12.5797101449275 12.5744822979292  12.6521739130435 12.7742150968604  12.6521739130435 13  C 12.6521739130435 13.2257849031396  12.5797101449275 13.4255177020708  12.4347826086956 13.5991983967936  L 2.30434782608688 25.7394789579159  C 2.15942028985512 25.9131596526386  1.99275362318849 26  1.80434782608688 26  C 1.6159420289855 26  1.44927536231887 25.9131596526386  1.304347826087 25.7394789579159  L 0.217391304347757 24.436873747495  C 0.0724637681159948 24.2631930527722  0 24.063460253841  0 23.8376753507014  C 0 23.6118904475618  0.0724637681159948 23.4121576486306  0.217391304347757 23.2384769539078  L 8.76086956521738 13  L 0.217391304347757 2.76152304609219  C 0.0724637681159948 2.5878423513694  0 2.38810955243821  0 2.16232464929861  C 0 1.93653974615897  0.0724637681159948 1.73680694722778  0.217391304347757 1.56312625250501  L 1.304347826087 0.260521042084179  C 1.44927536231887 0.0868403473613881  1.6159420289855 0  1.80434782608688 0  C 1.99275362318849 0  2.15942028985512 0.0868403473613881  2.30434782608688 0.260521042084179  L 12.4347826086956 12.4008016032064  Z M 20.7826086956522 12.4008016032064  C 20.927536231884 12.5744822979292  21 12.7742150968604  21 13  C 21 13.2257849031396  20.927536231884 13.4255177020708  20.7826086956522 13.5991983967936  L 10.6521739130435 25.7394789579159  C 10.5072463768116 25.9131596526386  10.340579710145 26  10.1521739130435 26  C 9.963768115942 26  9.79710144927537 25.9131596526386  9.65217391304338 25.7394789579159  L 8.56521739130437 24.436873747495  C 8.4202898550725 24.2631930527722  8.3478260869565 24.063460253841  8.3478260869565 23.8376753507014  C 8.3478260869565 23.6118904475618  8.4202898550725 23.4121576486306  8.56521739130437 23.2384769539078  L 17.108695652174 13  L 8.56521739130437 2.76152304609219  C 8.4202898550725 2.5878423513694  8.3478260869565 2.38810955243821  8.3478260869565 2.16232464929861  C 8.3478260869565 1.93653974615897  8.4202898550725 1.73680694722778  8.56521739130437 1.56312625250501  L 9.65217391304338 0.260521042084179  C 9.79710144927537 0.0868403473613881  9.963768115942 0  10.1521739130435 0  C 10.340579710145 0  10.5072463768116 0.0868403473613881  10.6521739130435 0.260521042084179  L 20.7826086956522 12.4008016032064  Z " fill-rule="nonzero" fill="#5ad2f7" stroke="none" transform="matrix(1 0 0 1 1224 90 )" />
  </g>
</svg>